<svg width="26" height="25" viewBox="0 0 26 25" fill="none" xmlns="http://www.w3.org/2000/svg">
<g id="Group">
<g id="Group_2">
<path id="Vector" d="M23.4108 24.4597L23.4096 24.4585L18.3298 19.3778C16.4502 20.8847 14.0877 21.7141 11.679 21.7141H11.6647C5.77567 21.7141 0.985413 16.9241 0.985413 11.0355C0.985413 5.14679 5.77567 0.356838 11.6647 0.356838C17.5538 0.356838 22.344 5.14679 22.344 11.0355C22.3476 13.45 21.517 15.8171 20.0076 17.7001L25.0898 22.7807L23.4119 24.4585L23.4108 24.4597ZM11.6647 2.72986C7.08448 2.72986 3.35859 6.45551 3.35859 11.0355C3.35859 15.6154 7.08448 19.341 11.6647 19.341H11.6766C13.8445 19.341 15.8949 18.5093 17.4493 16.9977L17.6273 16.8197C19.1414 15.263 19.9744 13.208 19.9708 11.0355C19.9708 6.45551 16.2449 2.72986 11.6647 2.72986Z" fill="#EDEDF0"/>
</g>
</g>
</svg>
