<svg width="19" height="25" viewBox="0 0 19 25" fill="none" xmlns="http://www.w3.org/2000/svg">
<g id="Profile">
<path id="Stroke 1" fill-rule="evenodd" clip-rule="evenodd" d="M9.7087 23.7943C5.42929 23.7943 1.77478 23.1283 1.77478 20.4614C1.77478 17.7944 5.40611 15.3324 9.7087 15.3324C13.9881 15.3324 17.6426 17.7705 17.6426 20.4375C17.6426 23.1034 14.0113 23.7943 9.7087 23.7943Z" stroke="white" stroke-width="1.8" stroke-linecap="round" stroke-linejoin="round"/>
<path id="Stroke 3" fill-rule="evenodd" clip-rule="evenodd" d="M9.70032 11.6367C12.5086 11.6367 14.7848 9.36055 14.7848 6.55222C14.7848 3.7439 12.5086 1.46667 9.70032 1.46667C6.892 1.46667 4.61478 3.7439 4.61478 6.55222C4.60529 9.35107 6.86565 11.6272 9.66449 11.6367C9.67714 11.6367 9.68873 11.6367 9.70032 11.6367Z" stroke="white" stroke-width="1.8" stroke-linecap="round" stroke-linejoin="round"/>
</g>
</svg>
