<svg width="96" height="96" viewBox="0 0 96 96" fill="none" xmlns="http://www.w3.org/2000/svg">
<g id="Alternate email" clip-path="url(#clip0_113_841)">
<path id="Vector" d="M50.88 8.12003C26.52 6.40003 6.4 26.52 8.12 50.88C9.56 72.04 28.04 88 49.24 88H64C66.2 88 68 86.2 68 84C68 81.8 66.2 80 64 80H49.32C34.4 80 20.72 70.32 17 55.88C11.04 32.68 32.64 11.04 55.84 17.04C70.32 20.72 80 34.4 80 49.32V53.72C80 56.88 77.16 60 74 60C70.84 60 68 56.88 68 53.72V48.72C68 38.68 60.88 29.64 50.96 28.24C37.36 26.28 25.88 38.04 28.32 51.72C29.68 59.36 35.64 65.68 43.2 67.48C50.56 69.2 57.56 66.84 62.16 62.16C65.72 67.04 72.84 69.6 79.36 67C84.72 64.88 88 59.4 88 53.64V49.28C88 28.04 72.04 9.56003 50.88 8.12003ZM48 60C41.36 60 36 54.64 36 48C36 41.36 41.36 36 48 36C54.64 36 60 41.36 60 48C60 54.64 54.64 60 48 60Z" fill="white"/>
</g>
<defs>
<clipPath id="clip0_113_841">
<rect width="96" height="96" fill="white"/>
</clipPath>
</defs>
</svg>
