<svg width="31" height="24" viewBox="0 0 31 24" fill="none" xmlns="http://www.w3.org/2000/svg">
<g id="Iconly/Bold/Add-User">
<path id="Vector" d="M0.1 23C0.1 23.4971 0.502944 23.9 1 23.9C1.49706 23.9 1.9 23.4971 1.9 23H0.1ZM18.5545 23C18.5545 23.4971 18.9575 23.9 19.4545 23.9C19.9516 23.9 20.3545 23.4971 20.3545 23H18.5545ZM15.9182 15.2353C15.9182 15.7324 16.3211 16.1353 16.8182 16.1353C17.3152 16.1353 17.7182 15.7324 17.7182 15.2353H15.9182ZM29.1 15.8824C29.1 16.3794 29.5029 16.7824 30 16.7824C30.4971 16.7824 30.9 16.3794 30.9 15.8824H29.1ZM1.9 23V21.7059H0.1V23H1.9ZM1.9 21.7059C1.9 17.2154 5.61255 13.5471 10.2273 13.5471V11.7471C4.64984 11.7471 0.1 16.1902 0.1 21.7059H1.9ZM10.2273 13.5471C14.842 13.5471 18.5545 17.2154 18.5545 21.7059H20.3545C20.3545 16.1902 15.8047 11.7471 10.2273 11.7471V13.5471ZM18.5545 21.7059V23H20.3545V21.7059H18.5545ZM17.7182 15.2353C17.7182 12.1743 20.2504 9.66471 23.4091 9.66471V7.86471C19.2877 7.86471 15.9182 11.1491 15.9182 15.2353H17.7182ZM23.4091 9.66471C26.5678 9.66471 29.1 12.1743 29.1 15.2353H30.9C30.9 11.1491 27.5305 7.86471 23.4091 7.86471V9.66471ZM29.1 15.2353V15.8824H30.9V15.2353H29.1ZM10.2273 13.5471C13.6206 13.5471 16.4 10.842 16.4 7.47059H14.6C14.6 9.81681 12.6579 11.7471 10.2273 11.7471V13.5471ZM16.4 7.47059C16.4 4.09908 13.6206 1.39412 10.2273 1.39412V3.19412C12.6579 3.19412 14.6 5.12432 14.6 7.47059H16.4ZM10.2273 1.39412C6.83387 1.39412 4.05455 4.09908 4.05455 7.47059H5.85455C5.85455 5.12432 7.79658 3.19412 10.2273 3.19412V1.39412ZM4.05455 7.47059C4.05455 10.842 6.83387 13.5471 10.2273 13.5471V11.7471C7.79658 11.7471 5.85455 9.81681 5.85455 7.47059H4.05455ZM23.4091 9.66471C26.0745 9.66471 28.2636 7.53912 28.2636 4.88235H26.4636C26.4636 6.51391 25.1118 7.86471 23.4091 7.86471V9.66471ZM28.2636 4.88235C28.2636 2.22559 26.0745 0.1 23.4091 0.1V1.9C25.1118 1.9 26.4636 3.2508 26.4636 4.88235H28.2636ZM23.4091 0.1C20.7436 0.1 18.5545 2.22559 18.5545 4.88235H20.3545C20.3545 3.2508 21.7064 1.9 23.4091 1.9V0.1ZM18.5545 4.88235C18.5545 7.53912 20.7436 9.66471 23.4091 9.66471V7.86471C21.7064 7.86471 20.3545 6.51391 20.3545 4.88235H18.5545Z" fill="white"/>
</g>
</svg>
