<svg width="29" height="29" viewBox="0 0 29 29" fill="none" xmlns="http://www.w3.org/2000/svg">
<g id="outline-share">
<path id="Vector (Stroke)" fill-rule="evenodd" clip-rule="evenodd" d="M19.7692 3.22799C20.8692 2.67791 22.1426 2.58732 23.3093 2.97613C24.476 3.36495 25.4405 4.20133 25.9906 5.30127C26.263 5.84591 26.4254 6.43886 26.4686 7.04627C26.5118 7.65369 26.435 8.26366 26.2425 8.84137C26.0499 9.41908 25.7455 9.95322 25.3466 10.4133C24.9476 10.8733 24.462 11.2503 23.9173 11.5227C23.3727 11.7951 22.7797 11.9575 22.1723 12.0007C21.5649 12.0439 20.9549 11.9671 20.3772 11.7745C19.7995 11.582 19.2654 11.2776 18.8053 10.8786C18.6413 10.7364 18.4879 10.5832 18.346 10.4202L12.4684 13.3591C12.5353 13.6727 12.5706 13.9977 12.5706 14.3303C12.5706 14.6629 12.5353 14.9879 12.4684 15.3015L18.3459 18.2403C18.8854 17.6207 19.5847 17.1499 20.3773 16.8857C20.9551 16.6931 21.5651 16.6162 22.1726 16.6593C22.7801 16.7025 23.3731 16.8649 23.9178 17.1373C25.0179 17.6873 25.8545 18.6519 26.2434 19.8187C26.6324 20.9856 26.5419 22.2591 25.9918 23.3592C25.4418 24.4593 24.4772 25.2959 23.3104 25.6848C22.1435 26.0738 20.87 25.9833 19.7699 25.4332C18.6698 24.8832 17.8332 23.9186 17.4443 22.7518C17.18 21.9591 17.1371 21.1172 17.3091 20.3139L11.4317 17.3752C11.0099 17.8596 10.4892 18.2543 9.89967 18.5301C8.95363 18.9727 7.88588 19.0829 6.86939 18.8428C5.85291 18.6028 4.94724 18.0266 4.29911 17.2076C3.65097 16.3886 3.29834 15.3747 3.29834 14.3303C3.29834 13.2858 3.65097 12.272 4.29911 11.453C4.94724 10.634 5.85291 10.0578 6.86939 9.81776C7.88588 9.57773 8.95363 9.68792 9.89967 10.1305C10.4892 10.4063 11.0099 10.801 11.4317 11.2854L17.3091 8.34673C17.137 7.54357 17.18 6.70182 17.4441 5.9093C17.8329 4.74256 18.6693 3.77806 19.7692 3.22799ZM10.0084 15.3674C10.1641 15.0559 10.2523 14.7044 10.2523 14.3303C10.2523 13.9562 10.1641 13.6047 10.0084 13.2932M10.0084 15.3674C9.77479 15.8343 9.3903 16.2089 8.91732 16.4302C8.4443 16.6515 7.91043 16.7066 7.40219 16.5866C6.89394 16.4665 6.44111 16.1784 6.11704 15.7689C5.79297 15.3594 5.61666 14.8525 5.61666 14.3303C5.61666 13.8081 5.79297 13.3011 6.11704 12.8916C6.44111 12.4821 6.89394 12.194 7.40219 12.074C7.91043 11.954 8.4443 12.0091 8.91732 12.2304C9.3903 12.4516 9.77479 12.8262 10.0084 13.2932M22.5763 5.17554C21.9929 4.98111 21.3562 5.02641 20.8061 5.30148C20.2561 5.57654 19.8379 6.05883 19.6435 6.64225C19.449 7.22567 19.4943 7.86244 19.7694 8.41246C19.9056 8.6848 20.0941 8.92765 20.3242 9.12714C20.5542 9.32663 20.8213 9.47886 21.1102 9.57513C21.3991 9.6714 21.7041 9.70983 22.0078 9.68822C22.3115 9.66661 22.608 9.58539 22.8804 9.44919C23.1527 9.313 23.3956 9.12449 23.5951 8.89444C23.7946 8.66439 23.9468 8.3973 24.0431 8.10842C24.1393 7.81954 24.1778 7.51452 24.1562 7.21079C24.1345 6.90706 24.0533 6.61056 23.9171 6.33821C23.6421 5.78819 23.1598 5.36996 22.5763 5.17554ZM22.0083 18.9718C21.7045 18.9502 21.3994 18.9887 21.1104 19.085C20.5269 19.2795 20.0445 19.6979 19.7694 20.248C19.4944 20.7982 19.4491 21.4351 19.6436 22.0187C19.8381 22.6022 20.2565 23.0846 20.8066 23.3596C21.3568 23.6347 21.9937 23.68 22.5773 23.4855C23.1608 23.291 23.6432 22.8726 23.9182 22.3224C24.1933 21.7723 24.2386 21.1354 24.0441 20.5518C23.8496 19.9683 23.4312 19.4859 22.881 19.2108C22.6086 19.0746 22.3121 18.9934 22.0083 18.9718Z" fill="white"/>
</g>
</svg>
