<svg width="90" height="90" viewBox="0 0 90 90" fill="none" xmlns="http://www.w3.org/2000/svg">
<g id="Group 39659">
<rect id="Rectangle 2296" width="90" height="90" rx="12" fill="#4A79F0"/>
<path id="Vector" d="M23 29.75L38.75 23L52.25 29.75L66.4317 23.6721C67.003 23.4273 67.6643 23.6919 67.9091 24.2629C67.969 24.403 68 24.5538 68 24.7061V61.25L52.25 68L38.75 61.25L24.5682 67.3279C23.9971 67.5727 23.3357 67.3081 23.091 66.7371C23.0309 66.5971 23 66.4461 23 66.2938V29.75ZM32 43.25V47.75H36.5V43.25H32ZM41 43.25V47.75H45.5V43.25H41ZM54.5 43.1134L51.7159 40.3293L49.3293 42.7159L52.1134 45.5L49.3293 48.2841L51.7159 50.6707L54.5 47.8866L57.2841 50.6707L59.6707 48.2841L56.8866 45.5L59.6707 42.7159L57.2841 40.3293L54.5 43.1134Z" fill="white"/>
</g>
</svg>
