<svg width="22" height="24" viewBox="0 0 22 24" fill="none" xmlns="http://www.w3.org/2000/svg">
<path d="M20.4922 23.8829C20.4119 23.8829 20.3339 23.8657 20.2594 23.8336L10.7467 19.5923L1.23392 23.8325C1.15939 23.8646 1.08027 23.8817 1 23.8817C0.888773 23.8817 0.780986 23.8497 0.689253 23.7901C0.524133 23.6825 0.426666 23.5039 0.426666 23.3092V1.23709C0.426666 0.606159 0.94152 0.0920296 1.57333 0.0920296H19.92C20.5518 0.0920296 21.0667 0.606159 21.0667 1.23709V23.3092C21.0667 23.505 20.9692 23.6848 20.8052 23.7901C20.7123 23.8508 20.6034 23.8829 20.4922 23.8829ZM10.7467 13.2613L14.1167 15.0293L13.4734 11.2827L16.1991 8.62843L12.4311 8.08109L10.7467 4.67226L9.06107 8.08109L5.29427 8.62843L8.01989 11.2827L7.37776 15.0293L10.7467 13.2613Z" fill="#AEAEAE"/>
</svg>
