<svg width="21" height="26" viewBox="0 0 21 26" fill="none" xmlns="http://www.w3.org/2000/svg">
<path d="M10.5733 25.2338L10.5722 25.2326L3.27595 17.9466C1.33005 16.0035 0.257919 13.4156 0.257919 10.6595C0.257919 7.90333 1.33005 5.3155 3.27595 3.37234C5.22528 1.42575 7.81675 0.353971 10.5733 0.353971C13.3299 0.353971 15.9214 1.42575 17.8707 3.37234C19.8166 5.3155 20.8887 7.90333 20.8887 10.6595C20.8887 13.4156 19.8166 16.0035 17.8707 17.9466L10.5745 25.2326L10.5733 25.2338ZM10.5733 6.07811C8.04493 6.07811 5.98667 8.13349 5.98667 10.6595C5.98667 13.1843 8.04493 15.2397 10.5733 15.2397C13.1017 15.2397 15.16 13.1843 15.16 10.6595C15.16 8.13349 13.1017 6.07811 10.5733 6.07811ZM10.5733 12.9496C9.30856 12.9496 8.28 11.9225 8.28 10.6595C8.28 9.39649 9.30856 8.36937 10.5733 8.36937C11.8381 8.36937 12.8667 9.39649 12.8667 10.6595C12.8667 11.9225 11.8381 12.9496 10.5733 12.9496Z" fill="white"/>
</svg>
