<svg width="25" height="24" viewBox="0 0 25 24" fill="none" xmlns="http://www.w3.org/2000/svg">
<path id="Vector" d="M22.4575 23.3523L22.4564 23.3511L17.5475 18.448C15.7312 19.9022 13.4482 20.7026 11.1204 20.7026H11.1067C5.41578 20.7026 0.786682 16.08 0.786682 10.3971C0.786682 4.7142 5.41578 0.0916119 11.1067 0.0916119C16.7976 0.0916119 21.4267 4.7142 21.4267 10.3971C21.4301 12.7273 20.6275 15.0117 19.1689 16.8289L24.0801 21.732L22.4587 23.3511L22.4575 23.3523ZM11.1078 5.81575C9.50938 5.81575 8.0038 6.66653 7.17935 8.03372C6.08887 9.84062 6.37095 12.1445 7.86391 13.6365C8.73079 14.501 9.88319 14.9773 11.109 14.9773C11.9415 14.9773 12.7602 14.7506 13.4745 14.3201C15.284 13.2323 16.113 11.0647 15.4915 9.04939C15.12 9.86696 14.3001 10.396 13.4035 10.396C13.2945 10.396 13.1856 10.388 13.0778 10.3731C12.0756 10.2288 11.2752 9.42955 11.1319 8.42762C10.9886 7.42684 11.5332 6.43752 12.4552 6.01957C12.0206 5.8856 11.5665 5.81575 11.1078 5.81575Z" fill="#AEAEAE"/>
</svg>
